<svg width="1029" height="301" viewBox="0 0 1029 301" fill="none" xmlns="http://www.w3.org/2000/svg">
<path d="M280.408 107.221V64.0838L237.449 42.9608L193.599 64.5294L236.825 85.8307L19 192.961V235.831L62.5829 257.221L106.166 235.831L62.5829 214.44L280.408 107.221Z" fill="#00B8D8"/>
<path d="M62.5829 85.8307L120.783 114.44L164.365 92.9608L62.5829 42.9608L19 64.4403V164.44L62.5829 143.05V85.8307Z" fill="#00B8D8"/>
<path d="M149.837 42.9608L164.365 50.091L208.037 28.5223L149.659 0.0909424L91.6377 28.7006L135.131 50.091L149.837 42.9608Z" fill="#00B8D8"/>
<path d="M280.408 235.831L280.319 135.831L236.825 157.31V214.262L178.982 185.652L135.221 207.132L236.825 257.221V257.31L280.408 235.831Z" fill="#00B8D8"/>
<path d="M149.659 257.221L135.131 250.091L91.6377 271.571L149.659 300.091L207.77 271.571L164.187 250.091L149.659 257.221Z" fill="#00B8D8"/>
<path fill-rule="evenodd" clip-rule="evenodd" d="M420.18 106.525C405.525 92.3608 388.803 90.0001 372.967 90.0001H335V209.902H373.852C383.885 209.902 404.541 208.623 421.066 191.902C430.902 182.066 437.394 168.394 437.394 149.508C437.394 130.82 430.803 116.754 420.18 106.525ZM370.115 186.492H362.738L362.836 113.41H370.213C378.672 113.41 390.377 114.689 399.328 123.639C405.918 130.525 409.557 139.869 409.164 149.508C409.164 162.787 403.951 173.017 397.459 178.426C388.41 186 375.918 186.492 370.115 186.492ZM473.885 113.41H513.917V90.1969H446.147V210H513.917V186.59H473.885V160.033H506.54V136.623H473.885V113.41ZM701.624 90.0001H633.656V114.984H658.837V209.705H688.247V114.984H717.657L701.624 90.0001ZM600.377 90.0001H633.622L590.344 149.902L633.622 209.803H600.377L573.819 172.918L547.262 209.803H514.016L557.196 149.902L514.016 90.0001H547.262L573.819 126.885L600.377 90.0001ZM794.43 195.915C785.184 204.767 772.2 209.292 758.823 209.292C745.446 209.292 732.364 204.669 723.216 195.915C713.577 186.669 708.954 174.079 708.954 162.177C708.954 150.079 713.577 137.39 723.216 128.341C732.462 119.489 745.446 114.964 758.823 114.964C772.2 114.964 785.282 119.587 794.43 128.341C804.069 137.39 808.692 150.177 808.692 162.177C808.594 174.079 803.971 186.767 794.43 195.915ZM740.43 144.866C735.512 149.587 733.249 156.276 733.249 162.571C733.249 170.538 737.085 176.144 740.43 179.39C744.757 183.62 750.856 186.571 758.725 186.571C766.692 186.571 772.692 183.718 776.921 179.489C781.151 175.259 784.2 169.062 784.2 162.177C784.2 155.095 781.053 148.899 776.921 144.866C771.905 140.144 765.02 137.685 758.725 137.685C752.233 137.685 745.348 139.948 740.43 144.866ZM859.543 209.292C872.92 209.292 885.904 204.767 895.15 195.915C904.789 186.767 909.412 174.079 909.412 162.177C909.412 150.177 904.789 137.39 895.15 128.341C886.002 119.587 872.92 114.964 859.543 114.964C846.166 114.964 833.183 119.489 823.937 128.341C814.297 137.39 809.674 150.079 809.674 162.177C809.674 174.079 814.297 186.669 823.937 195.915C833.084 204.669 846.166 209.292 859.543 209.292ZM834.068 162.571C834.068 156.276 836.33 149.587 841.248 144.866C846.068 139.948 853.052 137.685 859.543 137.685C865.838 137.685 872.724 140.144 877.74 144.866C881.871 148.899 885.019 155.095 885.019 162.177C885.019 169.062 881.969 175.259 877.74 179.489C873.51 183.718 867.51 186.571 859.543 186.571C851.674 186.571 845.576 183.62 841.248 179.39C837.904 176.144 834.068 170.538 834.068 162.571ZM937.839 117.226V187.653H966.069V191.748L971.97 180.472C976.986 185.194 984.56 189.718 992.724 189.718C997.445 189.718 1000.3 188.243 1001.77 186.571C1003.15 185.194 1004.04 183.226 1004.04 180.866C1004.04 179.095 1003.35 177.03 1001.48 175.456C999.455 173.609 996.411 172.706 991.571 171.27C990.997 171.1 990.399 170.922 989.773 170.735L983.675 168.866C979.839 167.685 974.331 165.62 970.691 161.587C966.068 156.571 965.576 150.177 965.576 145.554C965.576 134.44 969.904 127.653 973.839 123.718C978.462 119.095 986.035 115.161 997.052 115.161C1006 115.161 1016.43 118.013 1024.99 122.44L1015.64 140.735C1008.56 135.226 1003.35 134.636 1000.2 134.636C997.937 134.636 994.79 135.226 992.429 137.39C991.052 138.767 990.167 140.243 990.167 142.308C990.167 143.981 990.462 145.161 991.347 146.341C992.035 147.128 993.609 148.8 999.216 150.374L1006.4 152.538C1012.1 154.308 1018 156.374 1022.82 161.489C1027.45 166.407 1028.63 171.423 1028.63 177.62C1028.63 185.882 1026.56 193.849 1020.07 200.341C1012.4 208.112 1003.05 209.587 993.412 209.587C987.708 209.587 982.298 208.997 975.708 206.636C975.633 206.607 975.549 206.573 975.454 206.535C974.063 205.984 970.478 204.563 966.069 201.998V207.62H914.43V117.226H937.839Z" fill="#4B5563"/>
</svg>
