<?xml version="1.0" encoding="UTF-8"?>
<!DOCTYPE svg PUBLIC "-//W3C//DTD SVG 1.1//EN" "http://www.w3.org/Graphics/SVG/1.1/DTD/svg11.dtd">
<svg xmlns="http://www.w3.org/2000/svg" version="1.1" width="500px" height="500px" style="shape-rendering:geometricPrecision; text-rendering:geometricPrecision; image-rendering:optimizeQuality; fill-rule:evenodd; clip-rule:evenodd" xmlns:xlink="http://www.w3.org/1999/xlink">
<g><path style="opacity:0.004" fill="#fefffe" d="M 97.5,1.5 C 98.8333,2.16667 98.8333,2.16667 97.5,1.5 Z"/></g>
<g><path style="opacity:0.008" fill="#fefffe" d="M 105.5,72.5 C 106.833,73.1667 106.833,73.1667 105.5,72.5 Z"/></g>
<g><path style="opacity:1" fill="#dcdde3" d="M 212.5,106.5 C 212.833,106.5 213.167,106.5 213.5,106.5C 218.53,107.451 223.53,108.617 228.5,110C 228.055,112.672 228.889,115.172 231,117.5C 232.092,121.797 232.425,126.131 232,130.5C 229.502,132.823 227.002,135.157 224.5,137.5C 223.193,136.198 223.193,134.865 224.5,133.5C 221.08,129.574 218.246,125.241 216,120.5C 212.962,116.311 209.795,112.978 206.5,110.5C 208.663,109.531 210.996,108.698 213.5,108C 212.944,107.617 212.611,107.117 212.5,106.5 Z"/></g>
<g><path style="opacity:0.999" fill="#eaebed" d="M 213.5,106.5 C 229.03,104.178 242.864,108.178 255,118.5C 312.258,108.398 353.924,129.398 380,181.5C 386.059,194.846 389.559,208.846 390.5,223.5C 390.489,225.045 390.156,226.378 389.5,227.5C 389.246,221.25 388.246,215.25 386.5,209.5C 386.44,206.659 385.774,203.993 384.5,201.5C 383.492,198.156 382.492,194.823 381.5,191.5C 379.712,191.215 378.045,191.548 376.5,192.5C 369.587,201.791 360.253,206.625 348.5,207C 347.333,207.5 346.5,208.333 346,209.5C 345.667,209.167 345.333,208.833 345,208.5C 344.392,210.154 343.892,211.821 343.5,213.5C 340.343,200.723 334.343,189.39 325.5,179.5C 322.02,182.146 318.686,184.979 315.5,188C 312.102,189.916 308.435,190.916 304.5,191C 298.934,199.901 292.601,208.235 285.5,216C 279.158,220.67 272.158,224.004 264.5,226C 258.265,233.6 251.265,234.433 243.5,228.5C 242.05,227.15 241.383,225.484 241.5,223.5C 226.871,220.376 217.038,211.71 212,197.5C 208.093,182.559 208.927,167.893 214.5,153.5C 214.376,152.893 214.043,152.56 213.5,152.5C 215.836,151.704 217.169,150.038 217.5,147.5C 218.401,146.71 219.068,145.71 219.5,144.5C 221.522,142.469 223.189,140.135 224.5,137.5C 227.002,135.157 229.502,132.823 232,130.5C 232.425,126.131 232.092,121.797 231,117.5C 228.889,115.172 228.055,112.672 228.5,110C 223.53,108.617 218.53,107.451 213.5,106.5 Z"/></g>
<g><path style="opacity:1" fill="#bdbfcc" d="M 219.5,144.5 C 219.068,145.71 218.401,146.71 217.5,147.5C 212.932,144.458 208.766,140.791 205,136.5C 203.121,134.473 201.954,132.14 201.5,129.5C 199.801,129.66 198.134,129.494 196.5,129C 194.564,126.397 192.064,124.564 189,123.5C 188,124.833 187,124.833 186,123.5C 185.658,125.619 184.825,125.953 183.5,124.5C 186.52,121.484 189.854,118.817 193.5,116.5C 194.939,117.509 196.272,117.176 197.5,115.5C 198.696,115.846 198.696,116.346 197.5,117C 199.833,117.333 202.167,117.667 204.5,118C 201.833,118.667 201.833,119.333 204.5,120C 204.167,120.333 203.833,120.667 203.5,121C 207.128,121.79 209.128,123.957 209.5,127.5C 210.675,127.281 211.675,127.614 212.5,128.5C 213.768,131.316 215.268,133.983 217,136.5C 217.333,136.167 217.667,135.833 218,135.5C 219.177,137.634 219.677,140.634 219.5,144.5 Z"/></g>
<g><path style="opacity:1" fill="#ccced7" d="M 206.5,110.5 C 209.795,112.978 212.962,116.311 216,120.5C 218.246,125.241 221.08,129.574 224.5,133.5C 223.193,134.865 223.193,136.198 224.5,137.5C 223.189,140.135 221.522,142.469 219.5,144.5C 219.677,140.634 219.177,137.634 218,135.5C 217.667,135.833 217.333,136.167 217,136.5C 215.268,133.983 213.768,131.316 212.5,128.5C 211.675,127.614 210.675,127.281 209.5,127.5C 209.128,123.957 207.128,121.79 203.5,121C 203.833,120.667 204.167,120.333 204.5,120C 201.833,119.333 201.833,118.667 204.5,118C 202.167,117.667 199.833,117.333 197.5,117C 198.696,116.346 198.696,115.846 197.5,115.5C 196.272,117.176 194.939,117.509 193.5,116.5C 197.405,113.716 201.738,111.716 206.5,110.5 Z"/></g>
<g><path style="opacity:1" fill="#abadba" d="M 217.5,147.5 C 217.169,150.038 215.836,151.704 213.5,152.5C 212.5,152.5 211.5,152.5 210.5,152.5C 210.167,152.5 209.833,152.5 209.5,152.5C 210.263,151.732 211.263,151.232 212.5,151C 204.734,142.627 196.068,135.294 186.5,129C 184.567,128.217 183.067,128.717 182,130.5C 181.329,129.748 180.496,129.414 179.5,129.5C 180.833,127.833 182.167,126.167 183.5,124.5C 184.825,125.953 185.658,125.619 186,123.5C 187,124.833 188,124.833 189,123.5C 192.064,124.564 194.564,126.397 196.5,129C 198.134,129.494 199.801,129.66 201.5,129.5C 201.954,132.14 203.121,134.473 205,136.5C 208.766,140.791 212.932,144.458 217.5,147.5 Z"/></g>
<g><path style="opacity:1" fill="#999ba7" d="M 209.5,152.5 C 206.733,152.858 204.067,153.525 201.5,154.5C 199.909,153.781 198.409,152.781 197,151.5C 195.187,152.609 194.354,151.942 194.5,149.5C 191.532,149.374 189.532,147.874 188.5,145C 185.475,144.867 182.808,143.867 180.5,142C 177.704,141.958 175.037,141.791 172.5,141.5C 174.043,136.976 176.377,132.976 179.5,129.5C 180.496,129.414 181.329,129.748 182,130.5C 183.067,128.717 184.567,128.217 186.5,129C 196.068,135.294 204.734,142.627 212.5,151C 211.263,151.232 210.263,151.732 209.5,152.5 Z"/></g>
<g><path style="opacity:1" fill="#828389" d="M 172.5,141.5 C 175.037,141.791 177.704,141.958 180.5,142C 182.808,143.867 185.475,144.867 188.5,145C 189.532,147.874 191.532,149.374 194.5,149.5C 194.354,151.942 195.187,152.609 197,151.5C 198.409,152.781 199.909,153.781 201.5,154.5C 197.345,155.742 193.678,157.742 190.5,160.5C 190.5,161.167 190.167,161.5 189.5,161.5C 187.821,161.285 186.821,161.952 186.5,163.5C 183.68,165.745 180.68,167.745 177.5,169.5C 176.5,169.833 175.833,170.5 175.5,171.5C 175.5,172.167 175.167,172.5 174.5,172.5C 173.209,172.737 172.209,172.404 171.5,171.5C 173.048,171.179 173.715,170.179 173.5,168.5C 174.552,168.649 175.552,168.483 176.5,168C 175.742,166.636 176.242,165.469 178,164.5C 178.414,164.957 178.914,165.291 179.5,165.5C 180.893,164.137 182.559,163.304 184.5,163C 181.833,162.333 181.833,161.667 184.5,161C 181.85,158.404 178.684,156.904 175,156.5C 174.667,157.5 174.333,158.5 174,159.5C 173.529,157.754 172.862,156.087 172,154.5C 171.583,155.756 170.75,156.423 169.5,156.5C 169.397,151.251 170.397,146.251 172.5,141.5 Z"/></g>
<g><path style="opacity:0.999" fill="#e4e5e8" d="M 212.5,106.5 C 212.611,107.117 212.944,107.617 213.5,108C 210.996,108.698 208.663,109.531 206.5,110.5C 201.738,111.716 197.405,113.716 193.5,116.5C 189.854,118.817 186.52,121.484 183.5,124.5C 182.167,126.167 180.833,127.833 179.5,129.5C 176.377,132.976 174.043,136.976 172.5,141.5C 170.397,146.251 169.397,151.251 169.5,156.5C 169.292,161.635 169.959,166.635 171.5,171.5C 172.209,172.404 173.209,172.737 174.5,172.5C 174.077,173.265 173.743,174.098 173.5,175C 176.048,178.597 178.714,182.097 181.5,185.5C 192.757,194.046 203.924,202.712 215,211.5C 218.721,216.275 221.388,221.609 223,227.5C 228.047,230.88 232.047,235.214 235,240.5C 236.062,249.779 231.896,254.946 222.5,256C 218.736,269.43 210.402,278.764 197.5,284C 198.056,284.383 198.389,284.883 198.5,285.5C 197.033,285.106 195.533,284.773 194,284.5C 181.371,287.445 168.871,287.112 156.5,283.5C 149.047,280.401 142.047,276.401 135.5,271.5C 128.52,264.224 123.02,255.891 119,246.5C 117.016,250.469 115.016,254.469 113,258.5C 112.617,257.944 112.117,257.611 111.5,257.5C 113.21,253.553 115.21,249.72 117.5,246C 116.751,243.503 116.084,241.003 115.5,238.5C 116.6,236.723 117.434,234.723 118,232.5C 118.333,233.167 118.667,233.833 119,234.5C 120.808,234.112 122.475,234.112 124,234.5C 127.368,242.294 130.701,249.628 134,256.5C 134.333,256.167 134.667,255.833 135,255.5C 137.14,256.728 138.807,258.395 140,260.5C 140.718,259.549 141.551,259.383 142.5,260C 143.376,261.586 144.376,263.086 145.5,264.5C 150.415,266.435 155.082,268.768 159.5,271.5C 168.07,273.126 176.403,272.292 184.5,269C 186.892,266.272 188.892,263.272 190.5,260C 195.709,257.69 200.542,254.857 205,251.5C 205.679,248.45 206.512,245.45 207.5,242.5C 206.687,241.186 205.687,240.019 204.5,239C 204.957,238.586 205.291,238.086 205.5,237.5C 204.066,235.78 203.233,233.78 203,231.5C 200,226.128 197,220.795 194,215.5C 187.479,210.97 180.979,206.47 174.5,202C 166.633,199.831 160.466,195.998 156,190.5C 155.667,190.833 155.333,191.167 155,191.5C 153.071,189.017 150.738,188.351 148,189.5C 138.447,186.645 129.447,187.312 121,191.5C 119.167,191.481 117.667,190.815 116.5,189.5C 126.88,154.606 148.88,129.773 182.5,115C 192.151,110.921 202.151,108.087 212.5,106.5 Z"/></g>
<g><path style="opacity:0.392" fill="#cfcfd3" d="M 209.5,152.5 C 209.833,152.5 210.167,152.5 210.5,152.5C 203.761,154.969 197.095,157.636 190.5,160.5C 193.678,157.742 197.345,155.742 201.5,154.5C 204.067,153.525 206.733,152.858 209.5,152.5 Z"/></g>
<g><path style="opacity:1" fill="#6e6f73" d="M 171.5,171.5 C 169.959,166.635 169.292,161.635 169.5,156.5C 170.75,156.423 171.583,155.756 172,154.5C 172.862,156.087 173.529,157.754 174,159.5C 174.333,158.5 174.667,157.5 175,156.5C 178.684,156.904 181.85,158.404 184.5,161C 181.833,161.667 181.833,162.333 184.5,163C 182.559,163.304 180.893,164.137 179.5,165.5C 178.914,165.291 178.414,164.957 178,164.5C 176.242,165.469 175.742,166.636 176.5,168C 175.552,168.483 174.552,168.649 173.5,168.5C 173.715,170.179 173.048,171.179 171.5,171.5 Z"/></g>
<g><path style="opacity:0.396" fill="#cacacc" d="M 189.5,161.5 C 188.71,162.401 187.71,163.068 186.5,163.5C 186.821,161.952 187.821,161.285 189.5,161.5 Z"/></g>
<g><path style="opacity:0.004" fill="#e9e9e9" d="M 177.5,169.5 C 177.5,170.833 176.833,171.5 175.5,171.5C 175.833,170.5 176.5,169.833 177.5,169.5 Z"/></g>
<g><path style="opacity:1" fill="#dddde3" d="M 115.5,238.5 C 114.622,235.239 113.956,231.906 113.5,228.5C 114.321,225.359 114.821,222.025 115,218.5C 115.444,221.611 116.777,224.277 119,226.5C 119.414,226.043 119.914,225.709 120.5,225.5C 127.037,227.35 132.87,230.35 138,234.5C 137.228,243.278 140.895,249.611 149,253.5C 149.333,253.167 149.667,252.833 150,252.5C 153.918,256.367 158.584,259.034 164,260.5C 167.202,258.428 170.702,256.928 174.5,256C 170.787,254.837 170.787,253.337 174.5,251.5C 175.251,252.376 175.751,253.376 176,254.5C 177,252.5 178,250.5 179,248.5C 184.633,252.198 190.467,252.364 196.5,249C 198.477,246.74 199.477,244.073 199.5,241C 198.323,234.614 195.657,228.947 191.5,224C 191.833,223.667 192.167,223.333 192.5,223C 189.489,219.294 186.489,215.627 183.5,212C 177.459,209.24 171.126,207.573 164.5,207C 160.296,205.453 156.629,203.12 153.5,200C 144.281,196.363 135.281,196.696 126.5,201C 125.185,205.022 122.685,206.189 119,204.5C 118.145,207.115 116.812,209.448 115,211.5C 114.819,208.305 114.319,205.305 113.5,202.5C 113.977,197.929 114.977,193.596 116.5,189.5C 117.667,190.815 119.167,191.481 121,191.5C 129.447,187.312 138.447,186.645 148,189.5C 150.738,188.351 153.071,189.017 155,191.5C 155.333,191.167 155.667,190.833 156,190.5C 160.466,195.998 166.633,199.831 174.5,202C 180.979,206.47 187.479,210.97 194,215.5C 197,220.795 200,226.128 203,231.5C 203.233,233.78 204.066,235.78 205.5,237.5C 205.291,238.086 204.957,238.586 204.5,239C 205.687,240.019 206.687,241.186 207.5,242.5C 206.512,245.45 205.679,248.45 205,251.5C 200.542,254.857 195.709,257.69 190.5,260C 188.892,263.272 186.892,266.272 184.5,269C 176.403,272.292 168.07,273.126 159.5,271.5C 155.082,268.768 150.415,266.435 145.5,264.5C 144.376,263.086 143.376,261.586 142.5,260C 141.551,259.383 140.718,259.549 140,260.5C 138.807,258.395 137.14,256.728 135,255.5C 134.667,255.833 134.333,256.167 134,256.5C 130.701,249.628 127.368,242.294 124,234.5C 122.475,234.112 120.808,234.112 119,234.5C 118.667,233.833 118.333,233.167 118,232.5C 117.434,234.723 116.6,236.723 115.5,238.5 Z"/></g>
<g><path style="opacity:1" fill="#d7d8df" d="M 113.5,228.5 C 112.223,219.876 112.223,211.21 113.5,202.5C 114.319,205.305 114.819,208.305 115,211.5C 116.812,209.448 118.145,207.115 119,204.5C 122.685,206.189 125.185,205.022 126.5,201C 135.281,196.696 144.281,196.363 153.5,200C 156.629,203.12 160.296,205.453 164.5,207C 171.126,207.573 177.459,209.24 183.5,212C 186.489,215.627 189.489,219.294 192.5,223C 192.167,223.333 191.833,223.667 191.5,224C 195.657,228.947 198.323,234.614 199.5,241C 199.477,244.073 198.477,246.74 196.5,249C 190.467,252.364 184.633,252.198 179,248.5C 178,250.5 177,252.5 176,254.5C 175.751,253.376 175.251,252.376 174.5,251.5C 170.787,253.337 170.787,254.837 174.5,256C 170.702,256.928 167.202,258.428 164,260.5C 158.584,259.034 153.918,256.367 150,252.5C 149.667,252.833 149.333,253.167 149,253.5C 140.895,249.611 137.228,243.278 138,234.5C 132.87,230.35 127.037,227.35 120.5,225.5C 119.914,225.709 119.414,226.043 119,226.5C 116.777,224.277 115.444,221.611 115,218.5C 114.821,222.025 114.321,225.359 113.5,228.5 Z"/></g>
<g><path style="opacity:1" fill="#d7d8df" d="M 384.5,201.5 C 378.858,203.996 373.858,207.496 369.5,212C 363.345,214.834 357.345,217 351.5,218.5C 348.557,218.02 345.89,217.02 343.5,215.5C 343.5,214.833 343.5,214.167 343.5,213.5C 343.892,211.821 344.392,210.154 345,208.5C 345.333,208.833 345.667,209.167 346,209.5C 346.5,208.333 347.333,207.5 348.5,207C 360.253,206.625 369.587,201.791 376.5,192.5C 378.045,191.548 379.712,191.215 381.5,191.5C 382.492,194.823 383.492,198.156 384.5,201.5 Z"/></g>
<g><path style="opacity:1" fill="#cfd1da" d="M 143.5,205.5 C 146.716,206.03 149.883,206.696 153,207.5C 154,207.167 155,206.833 156,206.5C 156.519,207.516 157.353,208.182 158.5,208.5C 164.28,209.813 169.947,211.48 175.5,213.5C 177.762,219.078 180.429,224.412 183.5,229.5C 184.446,233.166 184.946,236.832 185,240.5C 181.89,243.636 178.89,242.97 176,238.5C 171.596,238.331 167.096,238.664 162.5,239.5C 162.071,234.534 159.904,233.534 156,236.5C 150.833,232.333 145.667,228.167 140.5,224C 133.815,223.034 127.649,220.534 122,216.5C 120.309,214.291 120.476,212.458 122.5,211C 129.136,208.543 136.136,206.709 143.5,205.5 Z"/></g>
<g><path style="opacity:0.994" fill="#e8e9ec" d="M 343.5,215.5 C 345.89,217.02 348.557,218.02 351.5,218.5C 356.911,221.553 361.578,225.553 365.5,230.5C 365.565,230.938 365.399,231.272 365,231.5C 364,230.5 363,229.5 362,228.5C 360.471,229.583 358.971,230.583 357.5,231.5C 357.167,230.833 356.833,230.167 356.5,229.5C 355.167,230.833 353.833,230.833 352.5,229.5C 352.167,230.167 351.833,230.833 351.5,231.5C 337.091,231.706 322.924,231.373 309,230.5C 301.201,232.218 293.368,233.884 285.5,235.5C 284.833,235.167 284.167,234.833 283.5,234.5C 283.089,235.262 282.923,236.262 283,237.5C 281.989,236.663 280.822,236.33 279.5,236.5C 288.13,219.505 302.13,211.172 321.5,211.5C 329.153,211.249 336.487,212.582 343.5,215.5 Z"/></g>
<g><path style="opacity:1" fill="#c1c3cf" d="M 384.5,201.5 C 385.774,203.993 386.44,206.659 386.5,209.5C 385.732,210.263 385.232,211.263 385,212.5C 384.667,211.5 384.333,210.5 384,209.5C 382.667,211.5 381.333,213.5 380,215.5C 379.667,215.167 379.333,214.833 379,214.5C 375.777,218.902 371.61,221.902 366.5,223.5C 367.546,225.882 367.546,228.215 366.5,230.5C 366.167,230.5 365.833,230.5 365.5,230.5C 361.578,225.553 356.911,221.553 351.5,218.5C 357.345,217 363.345,214.834 369.5,212C 373.858,207.496 378.858,203.996 384.5,201.5 Z"/></g>
<g><path style="opacity:1" fill="#aeb0bd" d="M 386.5,209.5 C 388.246,215.25 389.246,221.25 389.5,227.5C 389.5,227.833 389.5,228.167 389.5,228.5C 388.819,226.842 387.985,225.175 387,223.5C 386.558,225.679 385.558,226.345 384,225.5C 380.09,227.407 376.756,230.073 374,233.5C 373.667,233.167 373.333,232.833 373,232.5C 372.292,233.381 371.458,234.047 370.5,234.5C 368.806,233.473 367.473,232.139 366.5,230.5C 367.546,228.215 367.546,225.882 366.5,223.5C 371.61,221.902 375.777,218.902 379,214.5C 379.333,214.833 379.667,215.167 380,215.5C 381.333,213.5 382.667,211.5 384,209.5C 384.333,210.5 384.667,211.5 385,212.5C 385.232,211.263 385.732,210.263 386.5,209.5 Z"/></g>
<g><path style="opacity:1" fill="#a1a3ae" d="M 389.5,228.5 C 389.592,237.226 386.926,244.893 381.5,251.5C 380.883,251.611 380.383,251.944 380,252.5C 379.626,250.509 378.793,248.842 377.5,247.5C 376.59,244.008 374.924,241.008 372.5,238.5C 372.267,236.938 371.6,235.605 370.5,234.5C 371.458,234.047 372.292,233.381 373,232.5C 373.333,232.833 373.667,233.167 374,233.5C 376.756,230.073 380.09,227.407 384,225.5C 385.558,226.345 386.558,225.679 387,223.5C 387.985,225.175 388.819,226.842 389.5,228.5 Z"/></g>
<g><path style="opacity:0.999" fill="#e4e5e8" d="M 365.5,230.5 C 365.833,230.5 366.167,230.5 366.5,230.5C 367.473,232.139 368.806,233.473 370.5,234.5C 371.6,235.605 372.267,236.938 372.5,238.5C 371.052,240.232 370.218,242.232 370,244.5C 369.085,243.672 368.419,242.672 368,241.5C 367.667,242.167 367.333,242.833 367,243.5C 365.542,242.253 364.042,242.253 362.5,243.5C 359.351,241.325 356.017,240.658 352.5,241.5C 349.167,240.833 345.833,240.167 342.5,239.5C 334.275,239.797 325.775,239.797 317,239.5C 305.632,240.882 294.798,243.882 284.5,248.5C 283.469,249.7 282.635,251.034 282,252.5C 280.989,251.663 279.822,251.33 278.5,251.5C 277.203,259.31 276.369,258.976 276,250.5C 275.287,257.203 275.454,263.87 276.5,270.5C 269.557,267.23 265.224,261.896 263.5,254.5C 264.927,246.779 269.594,242.779 277.5,242.5C 277.595,240.214 278.262,238.214 279.5,236.5C 280.822,236.33 281.989,236.663 283,237.5C 282.923,236.262 283.089,235.262 283.5,234.5C 284.167,234.833 284.833,235.167 285.5,235.5C 293.368,233.884 301.201,232.218 309,230.5C 322.924,231.373 337.091,231.706 351.5,231.5C 351.833,230.833 352.167,230.167 352.5,229.5C 353.833,230.833 355.167,230.833 356.5,229.5C 356.833,230.167 357.167,230.833 357.5,231.5C 358.971,230.583 360.471,229.583 362,228.5C 363,229.5 364,230.5 365,231.5C 365.399,231.272 365.565,230.938 365.5,230.5 Z"/></g>
<g><path style="opacity:0.999" fill="#dcdde3" d="M 372.5,238.5 C 374.924,241.008 376.59,244.008 377.5,247.5C 377.047,248.458 376.381,249.292 375.5,250C 374.175,249.852 373.008,250.018 372,250.5C 370.581,249.54 369.081,248.707 367.5,248C 360.098,247.421 352.932,245.921 346,243.5C 339.31,243.446 332.477,243.612 325.5,244C 323.782,244.346 322.115,244.846 320.5,245.5C 319.833,244.833 319.167,244.167 318.5,243.5C 308.908,244.401 299.575,246.901 290.5,251C 288.263,253.03 286.763,255.53 286,258.5C 285,259.833 284,259.833 283,258.5C 281.061,263.701 282.228,268.201 286.5,272C 286.167,273.667 285.833,275.333 285.5,277C 287.14,279.604 288.473,282.437 289.5,285.5C 293.212,288.211 296.212,291.544 298.5,295.5C 300.889,296.602 302.723,298.269 304,300.5C 304.278,299.584 304.778,298.918 305.5,298.5C 308.709,300.539 312.043,302.372 315.5,304C 314.366,305.016 314.699,305.683 316.5,306C 316.167,306.333 315.833,306.667 315.5,307C 316.833,308.667 318.167,310.333 319.5,312C 318.944,312.383 318.611,312.883 318.5,313.5C 310.217,306.057 301.217,299.557 291.5,294C 283.845,287.856 278.845,280.023 276.5,270.5C 275.454,263.87 275.287,257.203 276,250.5C 276.369,258.976 277.203,259.31 278.5,251.5C 279.822,251.33 280.989,251.663 282,252.5C 282.635,251.034 283.469,249.7 284.5,248.5C 294.798,243.882 305.632,240.882 317,239.5C 325.775,239.797 334.275,239.797 342.5,239.5C 345.833,240.167 349.167,240.833 352.5,241.5C 356.017,240.658 359.351,241.325 362.5,243.5C 364.042,242.253 365.542,242.253 367,243.5C 367.333,242.833 367.667,242.167 368,241.5C 368.419,242.672 369.085,243.672 370,244.5C 370.218,242.232 371.052,240.232 372.5,238.5 Z"/></g>
<g><path style="opacity:0.999" fill="#d7d8df" d="M 377.5,247.5 C 378.793,248.842 379.626,250.509 380,252.5C 380.383,251.944 380.883,251.611 381.5,251.5C 383.247,257.743 384.58,264.076 385.5,270.5C 384.71,271.609 384.21,272.942 384,274.5C 382.887,273.289 381.72,273.289 380.5,274.5C 379.949,272.587 379.782,270.587 380,268.5C 376.752,266.793 373.585,264.96 370.5,263C 368.69,260.356 366.69,257.856 364.5,255.5C 359.53,253.233 354.53,251.067 349.5,249C 342.872,247.065 336.372,247.232 330,249.5C 318.116,248.008 306.616,249.674 295.5,254.5C 295.5,255.5 295.5,256.5 295.5,257.5C 294.167,257.5 292.833,257.5 291.5,257.5C 288.648,266.975 289.148,276.308 293,285.5C 296.581,289.752 300.748,293.252 305.5,296C 304.402,296.77 304.402,297.603 305.5,298.5C 304.778,298.918 304.278,299.584 304,300.5C 302.723,298.269 300.889,296.602 298.5,295.5C 296.212,291.544 293.212,288.211 289.5,285.5C 288.473,282.437 287.14,279.604 285.5,277C 285.833,275.333 286.167,273.667 286.5,272C 282.228,268.201 281.061,263.701 283,258.5C 284,259.833 285,259.833 286,258.5C 286.763,255.53 288.263,253.03 290.5,251C 299.575,246.901 308.908,244.401 318.5,243.5C 319.167,244.167 319.833,244.833 320.5,245.5C 322.115,244.846 323.782,244.346 325.5,244C 332.477,243.612 339.31,243.446 346,243.5C 352.932,245.921 360.098,247.421 367.5,248C 369.081,248.707 370.581,249.54 372,250.5C 373.008,250.018 374.175,249.852 375.5,250C 376.381,249.292 377.047,248.458 377.5,247.5 Z"/></g>
<g><path style="opacity:1" fill="#d2d4dc" d="M 385.5,270.5 C 386.797,278.826 386.797,287.16 385.5,295.5C 380.687,297.496 376.187,300.162 372,303.5C 371.667,303.167 371.333,302.833 371,302.5C 367.458,306.672 364.792,311.338 363,316.5C 358.318,322.834 351.652,326.834 343,328.5C 341.187,328.173 339.52,327.507 338,326.5C 336.093,328.103 334.593,327.77 333.5,325.5C 332.914,325.709 332.414,326.043 332,326.5C 330.846,325.257 329.512,324.257 328,323.5C 327.536,324.094 327.369,324.761 327.5,325.5C 326.395,326.6 325.062,327.267 323.5,327.5C 324.29,326.206 325.29,325.039 326.5,324C 323.593,320.605 320.927,317.105 318.5,313.5C 318.611,312.883 318.944,312.383 319.5,312C 318.167,310.333 316.833,308.667 315.5,307C 315.833,306.667 316.167,306.333 316.5,306C 314.699,305.683 314.366,305.016 315.5,304C 312.043,302.372 308.709,300.539 305.5,298.5C 304.402,297.603 304.402,296.77 305.5,296C 300.748,293.252 296.581,289.752 293,285.5C 289.148,276.308 288.648,266.975 291.5,257.5C 292.833,257.5 294.167,257.5 295.5,257.5C 295.5,256.5 295.5,255.5 295.5,254.5C 306.616,249.674 318.116,248.008 330,249.5C 336.372,247.232 342.872,247.065 349.5,249C 354.53,251.067 359.53,253.233 364.5,255.5C 366.69,257.856 368.69,260.356 370.5,263C 373.585,264.96 376.752,266.793 380,268.5C 379.782,270.587 379.949,272.587 380.5,274.5C 381.72,273.289 382.887,273.289 384,274.5C 384.21,272.942 384.71,271.609 385.5,270.5 Z"/></g>
<g><path style="opacity:1" fill="#c6c8d3" d="M 325.5,251.5 C 336.439,252.122 347.105,254.122 357.5,257.5C 357.351,258.552 357.517,259.552 358,260.5C 361.082,262.625 364.249,264.625 367.5,266.5C 369.427,269.35 371.594,272.017 374,274.5C 374.494,276.134 374.66,277.801 374.5,279.5C 375.5,279.5 376.5,279.5 377.5,279.5C 377.286,281.144 377.62,282.644 378.5,284C 376.951,285.214 375.785,286.714 375,288.5C 368.037,293.959 361.204,299.625 354.5,305.5C 353.248,307.001 352.248,308.668 351.5,310.5C 347.665,312.383 343.832,314.049 340,315.5C 335.585,315.031 331.419,313.698 327.5,311.5C 326.284,312.002 325.117,312.335 324,312.5C 323.625,310 322.792,307.667 321.5,305.5C 320.726,304.289 319.893,304.289 319,305.5C 318.626,304.584 318.126,303.75 317.5,303C 314.725,301.733 312.059,300.233 309.5,298.5C 305.589,293.287 301.089,288.621 296,284.5C 290.359,267.807 296.026,257.474 313,253.5C 313.772,253.645 314.439,253.978 315,254.5C 318.557,253.335 322.057,252.335 325.5,251.5 Z"/></g>
<g><path style="opacity:1" fill="#cdced8" d="M 135.5,271.5 C 132.901,271.451 130.734,270.451 129,268.5C 128.3,270.032 127.134,271.032 125.5,271.5C 121.557,268.756 117.224,266.756 112.5,265.5C 111.396,264.369 111.729,263.535 113.5,263C 112.733,261.53 112.067,260.03 111.5,258.5C 111.5,258.167 111.5,257.833 111.5,257.5C 112.117,257.611 112.617,257.944 113,258.5C 115.016,254.469 117.016,250.469 119,246.5C 123.02,255.891 128.52,264.224 135.5,271.5 Z"/></g>
<g><path style="opacity:0.998" fill="#e9e9ec" d="M 283.5,346.5 C 281.595,349.304 279.929,352.304 278.5,355.5C 270.597,366.877 259.93,374.711 246.5,379C 250.39,383.112 255.057,385.945 260.5,387.5C 267.879,390.13 275.546,391.13 283.5,390.5C 290.792,389.685 297.458,387.352 303.5,383.5C 306.135,382.189 308.469,380.522 310.5,378.5C 313.833,375.833 316.833,372.833 319.5,369.5C 322.228,366.101 324.561,362.434 326.5,358.5C 326.971,356.421 327.637,354.421 328.5,352.5C 329.092,349.873 329.425,347.206 329.5,344.5C 330.314,342.369 330.814,340.036 331,337.5C 332.395,336.185 333.395,336.519 334,338.5C 334.333,337.833 334.667,337.167 335,336.5C 335.903,337.701 337.069,338.535 338.5,339C 345.559,338.989 352.559,339.156 359.5,339.5C 359.351,338.448 359.517,337.448 360,336.5C 360.419,340.852 361.086,341.185 362,337.5C 362.414,337.957 362.914,338.291 363.5,338.5C 365.429,335.358 367.596,332.358 370,329.5C 371.039,330.71 372.206,331.71 373.5,332.5C 357.803,360.026 334.803,378.526 304.5,388C 288.113,393.798 271.78,393.798 255.5,388C 251.63,385.297 247.63,382.797 243.5,380.5C 192.121,389.992 152.621,372.659 125,328.5C 115.327,311.979 109.827,294.145 108.5,275C 108.917,272.502 109.251,270.002 109.5,267.5C 109.298,291.933 119.631,310.433 140.5,323C 152.054,328.105 163.72,328.605 175.5,324.5C 176.552,324.649 177.552,324.483 178.5,324C 187.156,317.518 194.156,309.684 199.5,300.5C 201.148,298.571 202.815,296.571 204.5,294.5C 203.873,293.583 203.539,292.583 203.5,291.5C 208.172,287.058 213.172,282.891 218.5,279C 223.644,276.341 228.978,274.175 234.5,272.5C 243.46,262.664 251.46,263.33 258.5,274.5C 275.657,280.152 285.823,291.818 289,309.5C 290.842,322.441 289.009,334.775 283.5,346.5 Z"/></g>
<g><path style="opacity:1" fill="#dddde3" d="M 111.5,258.5 C 112.067,260.03 112.733,261.53 113.5,263C 111.729,263.535 111.396,264.369 112.5,265.5C 117.224,266.756 121.557,268.756 125.5,271.5C 127.134,271.032 128.3,270.032 129,268.5C 130.734,270.451 132.901,271.451 135.5,271.5C 142.047,276.401 149.047,280.401 156.5,283.5C 155.391,287.928 156.058,292.261 158.5,296.5C 159.227,298.954 160.227,301.287 161.5,303.5C 162.475,305.795 163.808,307.795 165.5,309.5C 167.341,313.183 169.674,316.516 172.5,319.5C 173.752,321.001 174.752,322.668 175.5,324.5C 163.72,328.605 152.054,328.105 140.5,323C 119.631,310.433 109.298,291.933 109.5,267.5C 109.42,264.219 110.087,261.219 111.5,258.5 Z"/></g>
<g><path style="opacity:1" fill="#bbbdca" d="M 325.5,257.5 C 329.915,257.305 334.249,257.805 338.5,259C 346.624,261.754 353.791,266.254 360,272.5C 362.842,276.673 365.675,280.839 368.5,285C 362.575,287.583 358.741,291.417 357,296.5C 351.904,300.549 346.237,303.549 340,305.5C 324.471,303.977 311.638,296.977 301.5,284.5C 299.252,276.875 300.585,270.041 305.5,264C 311.973,260.975 318.64,258.808 325.5,257.5 Z"/></g>
<g><path style="opacity:1" fill="#afb1be" d="M 327.5,262.5 C 333.556,263.616 339.556,264.616 345.5,265.5C 348.321,270.001 351.988,274.001 356.5,277.5C 359.416,282.059 359.082,286.393 355.5,290.5C 352.372,291.398 349.372,293.232 346.5,296C 342.988,297.562 339.488,298.062 336,297.5C 334.667,298.167 333.333,298.833 332,299.5C 327.91,297.803 323.743,296.303 319.5,295C 315.921,290.75 311.754,287.25 307,284.5C 307.197,280.042 308.197,275.709 310,271.5C 311.712,269.247 313.879,267.58 316.5,266.5C 317.386,265.675 317.719,264.675 317.5,263.5C 321.042,263.813 324.375,263.479 327.5,262.5 Z"/></g>
<g><path style="opacity:1" fill="#a0a2af" d="M 323.5,271.5 C 326.289,273.537 329.289,273.87 332.5,272.5C 333.478,272.977 334.311,273.643 335,274.5C 336.049,273.483 337.216,273.316 338.5,274C 342.005,276.834 344.672,280.334 346.5,284.5C 344.552,289.438 340.885,291.938 335.5,292C 332.833,292.667 330.167,292.667 327.5,292C 325.091,290.293 322.425,289.46 319.5,289.5C 318.969,286.221 316.969,284.887 313.5,285.5C 313.5,283.5 313.5,281.5 313.5,279.5C 316.109,279.17 317.776,277.67 318.5,275C 319.833,274.667 321.167,274.333 322.5,274C 323.252,273.329 323.586,272.496 323.5,271.5 Z"/></g>
<g><path style="opacity:1" fill="#696a6d" d="M 156.5,283.5 C 168.871,287.112 181.371,287.445 194,284.5C 195.533,284.773 197.033,285.106 198.5,285.5C 198.751,287.17 199.418,288.67 200.5,290C 189.12,290.606 178.287,293.106 168,297.5C 166.984,296.366 166.317,296.699 166,298.5C 165.333,295.833 164.667,295.833 164,298.5C 162.275,297.536 160.441,296.869 158.5,296.5C 156.058,292.261 155.391,287.928 156.5,283.5 Z"/></g>
<g><path style="opacity:1" fill="#797a7f" d="M 198.5,285.5 C 199.833,286.167 200.833,287.167 201.5,288.5C 201.5,289.167 201.5,289.833 201.5,290.5C 201.607,292.379 201.107,292.712 200,291.5C 199.308,292.025 198.808,292.692 198.5,293.5C 191.007,294.229 183.673,295.396 176.5,297C 174.354,299.007 171.854,300.507 169,301.5C 168,300.833 167,300.167 166,299.5C 165.124,301.635 163.624,302.969 161.5,303.5C 160.227,301.287 159.227,298.954 158.5,296.5C 160.441,296.869 162.275,297.536 164,298.5C 164.667,295.833 165.333,295.833 166,298.5C 166.317,296.699 166.984,296.366 168,297.5C 178.287,293.106 189.12,290.606 200.5,290C 199.418,288.67 198.751,287.17 198.5,285.5 Z"/></g>
<g><path style="opacity:1" fill="#878890" d="M 201.5,290.5 C 202.763,293.003 202.263,295.336 200,297.5C 197.529,296.597 195.362,297.263 193.5,299.5C 191.033,298.126 189.199,298.793 188,301.5C 187.586,301.043 187.086,300.709 186.5,300.5C 182.809,301.527 179.309,302.86 176,304.5C 175.586,304.043 175.086,303.709 174.5,303.5C 171.216,305.125 168.216,307.125 165.5,309.5C 163.808,307.795 162.475,305.795 161.5,303.5C 163.624,302.969 165.124,301.635 166,299.5C 167,300.167 168,300.833 169,301.5C 171.854,300.507 174.354,299.007 176.5,297C 183.673,295.396 191.007,294.229 198.5,293.5C 198.808,292.692 199.308,292.025 200,291.5C 201.107,292.712 201.607,292.379 201.5,290.5 Z"/></g>
<g><path style="opacity:1" fill="#989aa4" d="M 201.5,288.5 C 202.906,288.973 203.573,289.973 203.5,291.5C 203.539,292.583 203.873,293.583 204.5,294.5C 202.815,296.571 201.148,298.571 199.5,300.5C 199.44,299.957 199.107,299.624 198.5,299.5C 196.455,301.047 194.289,302.381 192,303.5C 191.228,303.355 190.561,303.022 190,302.5C 186.789,305.097 183.456,307.43 180,309.5C 176.57,307.867 175.736,308.867 177.5,312.5C 175.358,314.618 173.692,316.952 172.5,319.5C 169.674,316.516 167.341,313.183 165.5,309.5C 168.216,307.125 171.216,305.125 174.5,303.5C 175.086,303.709 175.586,304.043 176,304.5C 179.309,302.86 182.809,301.527 186.5,300.5C 187.086,300.709 187.586,301.043 188,301.5C 189.199,298.793 191.033,298.126 193.5,299.5C 195.362,297.263 197.529,296.597 200,297.5C 202.263,295.336 202.763,293.003 201.5,290.5C 201.5,289.833 201.5,289.167 201.5,288.5 Z"/></g>
<g><path style="opacity:0.998" fill="#dfdfe4" d="M 385.5,295.5 C 383.891,308.66 379.891,320.993 373.5,332.5C 372.206,331.71 371.039,330.71 370,329.5C 367.596,332.358 365.429,335.358 363.5,338.5C 362.914,338.291 362.414,337.957 362,337.5C 361.086,341.185 360.419,340.852 360,336.5C 359.517,337.448 359.351,338.448 359.5,339.5C 352.559,339.156 345.559,338.989 338.5,339C 337.069,338.535 335.903,337.701 335,336.5C 334.667,337.167 334.333,337.833 334,338.5C 333.395,336.519 332.395,336.185 331,337.5C 330.814,340.036 330.314,342.369 329.5,344.5C 329.5,342.167 329.5,339.833 329.5,337.5C 329.47,333.382 328.803,329.382 327.5,325.5C 327.369,324.761 327.536,324.094 328,323.5C 329.512,324.257 330.846,325.257 332,326.5C 332.414,326.043 332.914,325.709 333.5,325.5C 334.593,327.77 336.093,328.103 338,326.5C 339.52,327.507 341.187,328.173 343,328.5C 351.652,326.834 358.318,322.834 363,316.5C 364.792,311.338 367.458,306.672 371,302.5C 371.333,302.833 371.667,303.167 372,303.5C 376.187,300.162 380.687,297.496 385.5,295.5 Z"/></g>
<g><path style="opacity:1" fill="#adafbc" d="M 199.5,300.5 C 194.156,309.684 187.156,317.518 178.5,324C 177.552,324.483 176.552,324.649 175.5,324.5C 174.752,322.668 173.752,321.001 172.5,319.5C 173.692,316.952 175.358,314.618 177.5,312.5C 175.736,308.867 176.57,307.867 180,309.5C 183.456,307.43 186.789,305.097 190,302.5C 190.561,303.022 191.228,303.355 192,303.5C 194.289,302.381 196.455,301.047 198.5,299.5C 199.107,299.624 199.44,299.957 199.5,300.5 Z"/></g>
<g><path style="opacity:1" fill="#505051" d="M 327.5,325.5 C 328.803,329.382 329.47,333.382 329.5,337.5C 328.883,337.611 328.383,337.944 328,338.5C 325.064,336.112 322.23,333.778 319.5,331.5C 321.167,330.5 322.5,329.167 323.5,327.5C 325.062,327.267 326.395,326.6 327.5,325.5 Z"/></g>
<g><path style="opacity:0.745" fill="#acacac" d="M 323.5,327.5 C 322.5,329.167 321.167,330.5 319.5,331.5C 319.167,331.5 318.833,331.5 318.5,331.5C 319.585,329.413 321.251,328.08 323.5,327.5 Z"/></g>
<g><path style="opacity:0.525" fill="#c4c5c5" d="M 318.5,331.5 C 318.027,332.906 317.027,333.573 315.5,333.5C 315.973,332.094 316.973,331.427 318.5,331.5 Z"/></g>
<g><path style="opacity:0.498" fill="#c2c2c2" d="M 315.5,333.5 C 315.027,334.906 314.027,335.573 312.5,335.5C 312.973,334.094 313.973,333.427 315.5,333.5 Z"/></g>
<g><path style="opacity:1" fill="#68686b" d="M 318.5,331.5 C 318.833,331.5 319.167,331.5 319.5,331.5C 322.23,333.778 325.064,336.112 328,338.5C 328.383,337.944 328.883,337.611 329.5,337.5C 329.5,339.833 329.5,342.167 329.5,344.5C 329.425,347.206 329.092,349.873 328.5,352.5C 322.063,349.78 316.063,346.28 310.5,342C 311.308,341.692 311.975,341.192 312.5,340.5C 312.458,338.812 312.458,337.146 312.5,335.5C 314.027,335.573 315.027,334.906 315.5,333.5C 317.027,333.573 318.027,332.906 318.5,331.5 Z"/></g>
<g><path style="opacity:0.353" fill="#dbdbdb" d="M 310.5,336.5 C 310.027,337.906 309.027,338.573 307.5,338.5C 307.973,337.094 308.973,336.427 310.5,336.5 Z"/></g>
<g><path style="opacity:1" fill="#808188" d="M 312.5,335.5 C 312.458,337.146 312.458,338.812 312.5,340.5C 311.975,341.192 311.308,341.692 310.5,342C 316.063,346.28 322.063,349.78 328.5,352.5C 327.637,354.421 326.971,356.421 326.5,358.5C 324.807,359.475 323.307,360.808 322,362.5C 320.117,361.347 319.284,359.681 319.5,357.5C 315.455,357.13 312.455,355.13 310.5,351.5C 308.775,350.985 307.108,350.318 305.5,349.5C 306.025,348.808 306.692,348.308 307.5,348C 305.806,346.065 304.139,344.231 302.5,342.5C 303.423,343.303 304.423,343.47 305.5,343C 305.167,342.667 304.833,342.333 304.5,342C 306.063,341.241 307.063,340.074 307.5,338.5C 309.027,338.573 310.027,337.906 310.5,336.5C 310.842,335.662 311.508,335.328 312.5,335.5 Z"/></g>
<g><path style="opacity:1" fill="#d8d9e0" d="M 278.5,355.5 C 279.528,357.999 278.861,360.166 276.5,362C 276.905,362.945 277.572,363.612 278.5,364C 276.519,364.605 276.185,365.605 277.5,367C 275.583,369.498 273.916,372.165 272.5,375C 272.833,375.333 273.167,375.667 273.5,376C 270.002,377.999 267.336,380.833 265.5,384.5C 263.66,385.67 261.994,386.67 260.5,387.5C 255.057,385.945 250.39,383.112 246.5,379C 259.93,374.711 270.597,366.877 278.5,355.5 Z"/></g>
<g><path style="opacity:1" fill="#c0c2ce" d="M 287.5,346.5 C 288.171,347.847 288.171,349.014 287.5,350C 289.604,350.489 289.938,351.655 288.5,353.5C 288.824,356.326 289.824,358.826 291.5,361C 291.043,361.414 290.709,361.914 290.5,362.5C 292.518,365.74 293.852,369.24 294.5,373C 297.525,376.55 300.525,380.05 303.5,383.5C 297.458,387.352 290.792,389.685 283.5,390.5C 283.461,389.417 283.127,388.417 282.5,387.5C 284.22,386.066 286.22,385.233 288.5,385C 286.833,384.667 285.167,384.333 283.5,384C 285.344,374.771 286.678,365.437 287.5,356C 286.167,355 286.167,354 287.5,353C 286.376,352.751 285.376,352.251 284.5,351.5C 285.275,349.604 286.275,347.937 287.5,346.5 Z"/></g>
<g><path style="opacity:1" fill="#92949e" d="M 302.5,342.5 C 304.139,344.231 305.806,346.065 307.5,348C 306.692,348.308 306.025,348.808 305.5,349.5C 307.108,350.318 308.775,350.985 310.5,351.5C 312.455,355.13 315.455,357.13 319.5,357.5C 319.284,359.681 320.117,361.347 322,362.5C 323.307,360.808 324.807,359.475 326.5,358.5C 324.561,362.434 322.228,366.101 319.5,369.5C 312.05,364.218 305.383,358.052 299.5,351C 301.878,350.026 301.544,349.359 298.5,349C 300.525,347.806 300.859,346.306 299.5,344.5C 300.357,343.575 301.357,342.908 302.5,342.5 Z"/></g>
<g><path style="opacity:1" fill="#a4a6b3" d="M 307.5,338.5 C 307.063,340.074 306.063,341.241 304.5,342C 304.833,342.333 305.167,342.667 305.5,343C 304.423,343.47 303.423,343.303 302.5,342.5C 301.357,342.908 300.357,343.575 299.5,344.5C 300.859,346.306 300.525,347.806 298.5,349C 301.544,349.359 301.878,350.026 299.5,351C 305.383,358.052 312.05,364.218 319.5,369.5C 316.833,372.833 313.833,375.833 310.5,378.5C 309.745,376.534 308.579,376.2 307,377.5C 305.513,376.747 305.346,375.914 306.5,375C 302.725,373.558 299.892,371.058 298,367.5C 296.646,361.418 294.979,355.418 293,349.5C 291.698,348.915 290.531,348.249 289.5,347.5C 291.404,347.262 292.738,346.262 293.5,344.5C 298.162,342.503 302.829,340.503 307.5,338.5 Z"/></g>
<g><path style="opacity:1" fill="#cecfd9" d="M 293.5,344.5 C 292.738,346.262 291.404,347.262 289.5,347.5C 289.158,346.662 288.492,346.328 287.5,346.5C 286.275,347.937 285.275,349.604 284.5,351.5C 285.376,352.251 286.376,352.751 287.5,353C 286.167,354 286.167,355 287.5,356C 286.678,365.437 285.344,374.771 283.5,384C 285.167,384.333 286.833,384.667 288.5,385C 286.22,385.233 284.22,386.066 282.5,387.5C 283.127,388.417 283.461,389.417 283.5,390.5C 275.546,391.13 267.879,390.13 260.5,387.5C 261.994,386.67 263.66,385.67 265.5,384.5C 267.336,380.833 270.002,377.999 273.5,376C 273.167,375.667 272.833,375.333 272.5,375C 273.916,372.165 275.583,369.498 277.5,367C 276.185,365.605 276.519,364.605 278.5,364C 277.572,363.612 276.905,362.945 276.5,362C 278.861,360.166 279.528,357.999 278.5,355.5C 279.929,352.304 281.595,349.304 283.5,346.5C 286.763,345.518 290.097,344.851 293.5,344.5 Z"/></g>
<g><path style="opacity:1" fill="#b7b9c6" d="M 287.5,346.5 C 288.492,346.328 289.158,346.662 289.5,347.5C 290.531,348.249 291.698,348.915 293,349.5C 294.979,355.418 296.646,361.418 298,367.5C 299.892,371.058 302.725,373.558 306.5,375C 305.346,375.914 305.513,376.747 307,377.5C 308.579,376.2 309.745,376.534 310.5,378.5C 308.469,380.522 306.135,382.189 303.5,383.5C 300.525,380.05 297.525,376.55 294.5,373C 293.852,369.24 292.518,365.74 290.5,362.5C 290.709,361.914 291.043,361.414 291.5,361C 289.824,358.826 288.824,356.326 288.5,353.5C 289.938,351.655 289.604,350.489 287.5,350C 288.171,349.014 288.171,347.847 287.5,346.5 Z"/></g>
<g><path style="opacity:0.004" fill="#fefffe" d="M 147.5,375.5 C 148.833,376.167 148.833,376.167 147.5,375.5 Z"/></g>
</svg>
